<svg id="Layer_1" data-name="Layer 1" xmlns="http://www.w3.org/2000/svg" viewBox="0 0 259.444 258.869">
  <defs>
    <style>
      .cls-1 {
        fill: #007fa1;
      }

      .cls-2 {
        fill: #0096c1;
      }

      .cls-3 {
        fill: #fff;
      }

      .cls-4 {
        fill: #c7c9cb;
      }
    </style>
  </defs>
  <title>func_genomics</title>
  <circle class="cls-1" cx="130.01" cy="129.435" r="129.435"/>
  <path class="cls-2" d="M128.859,258.869A129.435,129.435,0,0,1,128.859,0" transform="translate(0.575)"/>
  <path class="cls-3" d="M44.877,188.821c-.939-.22-1.9-.386-2.813-.675a22.277,22.277,0,0,1-3.179-1.2c-2.674-1.319-4.265-4.685-4.12-7.613.325-6.556,7.737-9.024,13.161-6.951,3.98,1.521,5.079,6.757,2.322,10.083a6.4,6.4,0,0,0-.712,1.641c.635.2,1.35.694,1.89.546a9.678,9.678,0,0,0,3.63-1.575,20.714,20.714,0,0,0,6.815-10.5q4.659-16.839,9.085-33.743c4.149-15.941,8.176-31.914,12.252-47.874.13-.51.226-1.029.386-1.762H72.361L75,79.784c1.8-.165,3.524-.276,5.237-.492a8.467,8.467,0,0,0,6.1-3.364,66.148,66.148,0,0,0,3.893-5.994c4.418-7.781,9.239-15.263,16.213-21.04,8.886-7.361,19.078-10.388,30.512-8.336,6.93,1.243,10.5,7.506,8.286,13.941a8.127,8.127,0,0,1-10.707,4.931,6.832,6.832,0,0,1-3.738-9.525c.491-1.085,1.164-2.089,1.624-3.185.751-1.791-.091-3.032-2.009-3.045a10.2,10.2,0,0,0-6.849,3c-4.243,3.721-7.151,8.413-9.56,13.443a101.073,101.073,0,0,0-6.47,18.716,3.747,3.747,0,0,0-.006.776h11.615c-.93,3.132-1.771,6.085-2.725,9-.1.308-.871.552-1.335.56-2.933.051-5.868.075-8.8,0-1.134-.028-1.564.335-1.85,1.463-3.956,15.6-7.9,31.2-12.007,46.76a148.889,148.889,0,0,1-8.459,24.394c-3.488,7.573-7.934,14.478-14.559,19.737a32.492,32.492,0,0,1-17.25,6.993,6.364,6.364,0,0,0-1.079.3Z" transform="translate(0.575)"/>
  <g>
    <path class="cls-4" d="M201.967,171.269a3.178,3.178,0,0,1-3.177-3.177c0-10.371-11.252-22.929-22.135-35.075-12.347-13.78-25.113-28.029-25.113-42.239a3.177,3.177,0,1,1,6.354,0c0,11.78,11.941,25.109,23.492,38,12.216,13.635,23.756,26.514,23.756,39.315A3.178,3.178,0,0,1,201.967,171.269Z" transform="translate(0.575)"/>
    <path class="cls-4" d="M177.8,99.324H155.452a3.177,3.177,0,1,1,0-6.354H177.8a3.177,3.177,0,1,1,0,6.354Z" transform="translate(0.575)"/>
    <path class="cls-4" d="M177.8,110.062H160.128a3.177,3.177,0,1,1,0-6.354H177.8a3.177,3.177,0,0,1,0,6.354Z" transform="translate(0.575)"/>
    <path class="cls-4" d="M177.8,119.995H166.9a3.177,3.177,0,1,1,0-6.354h10.9a3.177,3.177,0,0,1,0,6.354Z" transform="translate(0.575)"/>
    <path class="cls-4" d="M200.627,165.364H178.275a3.177,3.177,0,1,1,0-6.354h22.352a3.177,3.177,0,1,1,0,6.354Z" transform="translate(0.575)"/>
    <path class="cls-4" d="M195.95,155.228H178.275a3.177,3.177,0,0,1,0-6.354H195.95a3.177,3.177,0,1,1,0,6.354Z" transform="translate(0.575)"/>
    <path class="cls-4" d="M188.708,145.163H178.275a3.177,3.177,0,0,1,0-6.354h10.433a3.177,3.177,0,1,1,0,6.354Z" transform="translate(0.575)"/>
    <path class="cls-3" d="M178.343,165.364H155.991a3.177,3.177,0,0,1,0-6.354h22.352a3.177,3.177,0,1,1,0,6.354Z" transform="translate(0.575)"/>
    <path class="cls-3" d="M178.343,155.228H160.668a3.177,3.177,0,1,1,0-6.354h17.675a3.177,3.177,0,1,1,0,6.354Z" transform="translate(0.575)"/>
    <path class="cls-3" d="M178.343,145.163H167.37a3.177,3.177,0,0,1,0-6.354h10.973a3.177,3.177,0,1,1,0,6.354Z" transform="translate(0.575)"/>
    <path class="cls-3" d="M154.111,171.269a3.178,3.178,0,0,1-3.177-3.177c0-12.8,11.54-25.68,23.756-39.315,11.55-12.89,23.492-26.219,23.492-38a3.177,3.177,0,1,1,6.354,0c0,14.21-12.767,28.459-25.113,42.239-10.882,12.146-22.135,24.7-22.135,35.075A3.178,3.178,0,0,1,154.111,171.269Z" transform="translate(0.575)"/>
    <path class="cls-3" d="M200.087,99.324H177.735a3.177,3.177,0,0,1,0-6.354h22.352a3.177,3.177,0,1,1,0,6.354Z" transform="translate(0.575)"/>
    <path class="cls-3" d="M195.41,110.062H177.735a3.177,3.177,0,0,1,0-6.354H195.41a3.177,3.177,0,0,1,0,6.354Z" transform="translate(0.575)"/>
    <path class="cls-3" d="M189.451,119.995H177.735a3.177,3.177,0,0,1,0-6.354h11.716a3.177,3.177,0,0,1,0,6.354Z" transform="translate(0.575)"/>
  </g>
  <path class="cls-3" d="M148.569,191.368a4.222,4.222,0,0,1-3-1.241,85.928,85.928,0,0,1,0-121.385,4.236,4.236,0,1,1,5.99,5.99,77.449,77.449,0,0,0,0,109.4,4.236,4.236,0,0,1-3,7.231Z" transform="translate(0.575)"/>
  <path class="cls-3" d="M203.766,191.368a4.236,4.236,0,0,1-3-7.231,77.449,77.449,0,0,0,0-109.4,4.236,4.236,0,1,1,5.99-5.99,85.93,85.93,0,0,1,0,121.385A4.222,4.222,0,0,1,203.766,191.368Z" transform="translate(0.575)"/>
</svg>
