<svg id="Layer_1" data-name="Layer 1" xmlns="http://www.w3.org/2000/svg" viewBox="0 0 266.615 266.615">
  <defs>
    <style>
      .cls-1 {
        fill: #007fa1;
      }

      .cls-2 {
        fill: #0096c1;
      }

      .cls-3 {
        fill: #fff;
      }
    </style>
  </defs>
  <title>genetics</title>
  <g>
    <circle class="cls-1" cx="133.307" cy="133.307" r="133.307"/>
    <path class="cls-2" d="M133.529,266.615A133.307,133.307,0,0,1,133.529,0"/>
  </g>
  <rect class="cls-3" x="62.638" y="47.516" width="23.399" height="55.575" rx="10.114" ry="10.114"/>
  <rect class="cls-3" x="62.638" y="103.087" width="23.399" height="127.718" rx="10.114" ry="10.114"/>
  <rect class="cls-3" x="90.611" y="47.516" width="23.399" height="55.575" rx="10.114" ry="10.114"/>
  <rect class="cls-3" x="90.611" y="103.087" width="23.399" height="127.718" rx="10.114" ry="10.114"/>
  <rect class="cls-3" x="154.355" y="99.074" width="24.994" height="38.88" rx="10.803" ry="10.803"/>
  <rect class="cls-3" x="154.355" y="137.951" width="24.994" height="89.35" rx="10.803" ry="10.803"/>
  <rect class="cls-3" x="184.235" y="99.074" width="24.994" height="38.88" rx="10.803" ry="10.803"/>
  <rect class="cls-3" x="184.235" y="137.951" width="24.994" height="89.35" rx="10.803" ry="10.803"/>
  <rect class="cls-1" x="62.638" y="127.493" width="23.399" height="5.141"/>
  <rect class="cls-1" x="62.638" y="72.733" width="23.399" height="5.141"/>
  <rect class="cls-1" x="62.638" y="63.554" width="23.399" height="5.141"/>
  <rect class="cls-1" x="90.611" y="72.733" width="23.399" height="5.141"/>
  <rect class="cls-1" x="90.611" y="63.554" width="23.399" height="5.141"/>
  <rect class="cls-1" x="62.638" y="139.793" width="23.399" height="12.532"/>
  <rect class="cls-1" x="90.611" y="127.493" width="23.399" height="5.141"/>
  <rect class="cls-1" x="90.611" y="139.793" width="23.399" height="12.532"/>
  <rect class="cls-1" x="62.638" y="200.901" width="23.399" height="5.141"/>
  <rect class="cls-1" x="62.638" y="183.781" width="23.399" height="12.532"/>
  <rect class="cls-1" x="90.611" y="200.901" width="23.399" height="5.141"/>
  <rect class="cls-1" x="90.611" y="183.781" width="23.399" height="12.532"/>
  <rect class="cls-2" x="154.355" y="155.025" width="24.994" height="3.597"/>
  <rect class="cls-2" x="154.355" y="161.371" width="24.994" height="3.597"/>
  <rect class="cls-2" x="154.355" y="117.056" width="24.994" height="8.719"/>
  <rect class="cls-2" x="184.235" y="117.056" width="24.994" height="8.719"/>
  <rect class="cls-2" x="184.235" y="161.371" width="24.994" height="3.597"/>
  <rect class="cls-2" x="154.355" y="172.398" width="24.994" height="10.228"/>
  <rect class="cls-2" x="184.235" y="172.398" width="24.994" height="10.228"/>
  <rect class="cls-2" x="184.235" y="155.025" width="24.994" height="3.597"/>
  <rect class="cls-2" x="154.355" y="206.38" width="24.994" height="3.597"/>
  <rect class="cls-2" x="154.355" y="194.403" width="24.994" height="8.767"/>
  <rect class="cls-2" x="184.235" y="206.38" width="24.994" height="3.597"/>
  <rect class="cls-2" x="184.235" y="194.403" width="24.994" height="8.767"/>
</svg>
