<svg id="Layer_1" data-name="Layer 1" xmlns="http://www.w3.org/2000/svg" viewBox="0 0 170.996 170.996">
  <defs>
    <style>
      .cls-1 {
        fill: #007fa1;
      }

      .cls-2 {
        fill: #0096c1;
      }

      .cls-3 {
        fill: #fff;
      }
    </style>
  </defs>
  <title>integrate</title>
  <circle class="cls-1" cx="85.498" cy="85.498" r="85.498"/>
  <path class="cls-2" d="M92.211,174.947a85.5,85.5,0,0,1,0-171" transform="translate(-6.498 -3.951)"/>
  <g>
    <path class="cls-3" d="M105.4,78.139V92.721h7.629V78.139a23.5,23.5,0,1,0-7.629,0Zm3.814-39.18A15.933,15.933,0,1,1,93.338,54.892,15.923,15.923,0,0,1,109.211,38.959Z" transform="translate(-6.498 -3.951)"/>
    <path class="cls-3" d="M109.211,100.444a23.415,23.415,0,0,0-17.272,7.6l-8.707-6.8-4.693,6.015,9.2,7.181a23.49,23.49,0,1,0,21.473-14Zm0,39.5a15.933,15.933,0,1,1,15.876-15.933A15.92,15.92,0,0,1,109.211,139.939Z" transform="translate(-6.498 -3.951)"/>
    <path class="cls-3" d="M75.975,78.7l9.958-5.689L82.148,66.39,71.4,72.53A23.569,23.569,0,1,0,75.975,78.7ZM55.067,105.381A15.932,15.932,0,1,1,70.943,89.448,15.92,15.92,0,0,1,55.067,105.381Z" transform="translate(-6.498 -3.951)"/>
  </g>
</svg>
