<svg id="Layer_1" data-name="Layer 1" xmlns="http://www.w3.org/2000/svg" xmlns:xlink="http://www.w3.org/1999/xlink" viewBox="0 0 178.294 178.505">
  <defs>
    <style>
      .cls-1 {
        fill: none;
      }

      .cls-2 {
        fill: #007fa1;
      }

      .cls-3 {
        fill: #0096c1;
      }

      .cls-4 {
        clip-path: url(#clip-path);
      }

      .cls-5 {
        fill: #c9c8c7;
      }

      .cls-6 {
        fill: #fff;
      }
    </style>
    <clipPath id="clip-path" transform="translate(-12.098 -18.7)">
      <ellipse class="cls-1" cx="100.506" cy="105" rx="78.258" ry="80.81"/>
    </clipPath>
  </defs>
  <title>pop_gen</title>
  <g>
    <circle class="cls-2" cx="88.563" cy="86.3" r="86.3"/>
    <path class="cls-3" d="M100.8,191.3a86.3,86.3,0,1,1,0-172.6" transform="translate(-12.098 -18.7)"/>
  </g>
  <g class="cls-4">
    <g>
      <g>
        <path class="cls-5" d="M105.486,38.846a.8.8,0,0,1-.513.593.79.79,0,0,1-1.011-.415,1.019,1.019,0,0,1-.089-.206l-.37-5.158a.085.085,0,0,0-.165.023l-.094,3.138.537,13.453a.794.794,0,0,1-.787.9h-1.1a.794.794,0,0,1-.788-.695l-.258-12.039-.258,12.039a.793.793,0,0,1-.787.695H98.7a.793.793,0,0,1-.787-.9l.537-13.453-.094-3.138a.085.085,0,0,0-.165-.023l-.37,5.158a1.046,1.046,0,0,1-.089.206.79.79,0,0,1-1.011.415.8.8,0,0,1-.514-.593,1.065,1.065,0,0,1,.017-.543l1.078-8.083a1.775,1.775,0,0,1,1.705-1.282h3.674a1.775,1.775,0,0,1,1.705,1.282l1.078,8.083a1.062,1.062,0,0,1,.017.543Z" transform="translate(-12.098 -18.7)"/>
        <circle class="cls-5" cx="88.751" cy="7.435" r="2.177"/>
      </g>
      <g>
        <path class="cls-5" d="M105.486,74.419a.8.8,0,0,1-.513.593.79.79,0,0,1-1.011-.415,1.019,1.019,0,0,1-.089-.206l-.37-5.158a.085.085,0,0,0-.165.023l-.094,3.138.537,13.453a.794.794,0,0,1-.787.9h-1.1a.794.794,0,0,1-.788-.695l-.258-12.039-.258,12.039a.793.793,0,0,1-.787.695H98.7a.793.793,0,0,1-.787-.9l.537-13.453-.094-3.138a.085.085,0,0,0-.165-.023l-.37,5.158a1.046,1.046,0,0,1-.089.206.79.79,0,0,1-1.011.415.8.8,0,0,1-.514-.593,1.065,1.065,0,0,1,.017-.543l1.078-8.083a1.775,1.775,0,0,1,1.705-1.282h3.674a1.775,1.775,0,0,1,1.705,1.282l1.078,8.083a1.062,1.062,0,0,1,.017.543Z" transform="translate(-12.098 -18.7)"/>
        <circle class="cls-5" cx="88.751" cy="43.007" r="2.177"/>
      </g>
      <g>
        <path class="cls-5" d="M105.486,109.991a.8.8,0,0,1-.513.593.79.79,0,0,1-1.011-.415,1.019,1.019,0,0,1-.089-.206l-.37-5.158a.085.085,0,0,0-.165.023l-.094,3.138.537,13.453a.794.794,0,0,1-.787.9h-1.1a.794.794,0,0,1-.788-.695l-.258-12.039-.258,12.039a.793.793,0,0,1-.787.695H98.7a.793.793,0,0,1-.787-.9l.537-13.453-.094-3.138a.085.085,0,0,0-.165-.023l-.37,5.158a1.046,1.046,0,0,1-.089.206.79.79,0,0,1-1.011.415.8.8,0,0,1-.514-.593,1.065,1.065,0,0,1,.017-.543l1.078-8.083a1.775,1.775,0,0,1,1.705-1.282h3.674a1.775,1.775,0,0,1,1.705,1.282l1.078,8.083a1.062,1.062,0,0,1,.017.543Z" transform="translate(-12.098 -18.7)"/>
        <circle class="cls-5" cx="88.751" cy="78.579" r="2.177"/>
      </g>
      <g>
        <path class="cls-5" d="M105.486,145.563a.8.8,0,0,1-.513.593.79.79,0,0,1-1.011-.415,1.019,1.019,0,0,1-.089-.206l-.37-5.158a.085.085,0,0,0-.165.023l-.094,3.138.537,13.453a.794.794,0,0,1-.787.9h-1.1a.794.794,0,0,1-.788-.695l-.258-12.039-.258,12.039a.793.793,0,0,1-.787.695H98.7a.793.793,0,0,1-.787-.9l.537-13.453-.094-3.138a.085.085,0,0,0-.165-.023l-.37,5.158a1.046,1.046,0,0,1-.089.206.79.79,0,0,1-1.011.415.8.8,0,0,1-.514-.593,1.065,1.065,0,0,1,.017-.543l1.078-8.083a1.775,1.775,0,0,1,1.705-1.282h3.674a1.775,1.775,0,0,1,1.705,1.282l1.078,8.083a1.062,1.062,0,0,1,.017.543Z" transform="translate(-12.098 -18.7)"/>
        <circle class="cls-5" cx="88.751" cy="114.151" r="2.177"/>
      </g>
      <g>
        <path class="cls-5" d="M83.062,38.846a.8.8,0,0,1-.513.593.79.79,0,0,1-1.011-.415,1.019,1.019,0,0,1-.089-.206l-.37-5.158a.085.085,0,0,0-.165.023l-.094,3.138.537,13.453a.794.794,0,0,1-.787.9h-1.1a.794.794,0,0,1-.788-.695l-.258-12.039-.258,12.039a.793.793,0,0,1-.787.695h-1.1a.793.793,0,0,1-.787-.9l.537-13.453-.094-3.138a.085.085,0,0,0-.165-.023l-.37,5.158a1.046,1.046,0,0,1-.089.206.79.79,0,0,1-1.011.415.8.8,0,0,1-.514-.593A1.065,1.065,0,0,1,73.8,38.3l1.078-8.083a1.775,1.775,0,0,1,1.705-1.282h3.674a1.775,1.775,0,0,1,1.705,1.282L83.045,38.3a1.062,1.062,0,0,1,.017.543Z" transform="translate(-12.098 -18.7)"/>
        <circle class="cls-5" cx="66.326" cy="7.435" r="2.177"/>
      </g>
      <g>
        <path class="cls-5" d="M83.062,74.419a.8.8,0,0,1-.513.593.79.79,0,0,1-1.011-.415,1.019,1.019,0,0,1-.089-.206l-.37-5.158a.085.085,0,0,0-.165.023l-.094,3.138.537,13.453a.794.794,0,0,1-.787.9h-1.1a.794.794,0,0,1-.788-.695L78.425,74.01,78.167,86.05a.793.793,0,0,1-.787.695h-1.1a.793.793,0,0,1-.787-.9l.537-13.453-.094-3.138a.085.085,0,0,0-.165-.023L75.4,74.39a1.046,1.046,0,0,1-.089.206.79.79,0,0,1-1.011.415.8.8,0,0,1-.514-.593,1.065,1.065,0,0,1,.017-.543l1.078-8.083a1.775,1.775,0,0,1,1.705-1.282h3.674a1.775,1.775,0,0,1,1.705,1.282l1.078,8.083a1.062,1.062,0,0,1,.017.543Z" transform="translate(-12.098 -18.7)"/>
        <circle class="cls-5" cx="66.326" cy="43.007" r="2.177"/>
      </g>
      <g>
        <path class="cls-5" d="M83.062,109.991a.8.8,0,0,1-.513.593.79.79,0,0,1-1.011-.415,1.019,1.019,0,0,1-.089-.206l-.37-5.158a.085.085,0,0,0-.165.023l-.094,3.138.537,13.453a.794.794,0,0,1-.787.9h-1.1a.794.794,0,0,1-.788-.695l-.258-12.039-.258,12.039a.793.793,0,0,1-.787.695h-1.1a.793.793,0,0,1-.787-.9l.537-13.453-.094-3.138a.085.085,0,0,0-.165-.023l-.37,5.158a1.046,1.046,0,0,1-.089.206.79.79,0,0,1-1.011.415.8.8,0,0,1-.514-.593,1.065,1.065,0,0,1,.017-.543l1.078-8.083a1.775,1.775,0,0,1,1.705-1.282h3.674a1.775,1.775,0,0,1,1.705,1.282l1.078,8.083a1.062,1.062,0,0,1,.017.543Z" transform="translate(-12.098 -18.7)"/>
        <circle class="cls-5" cx="66.326" cy="78.579" r="2.177"/>
      </g>
      <g>
        <path class="cls-5" d="M83.062,145.563a.8.8,0,0,1-.513.593.79.79,0,0,1-1.011-.415,1.019,1.019,0,0,1-.089-.206l-.37-5.158a.085.085,0,0,0-.165.023l-.094,3.138.537,13.453a.794.794,0,0,1-.787.9h-1.1a.794.794,0,0,1-.788-.695l-.258-12.039-.258,12.039a.793.793,0,0,1-.787.695h-1.1a.793.793,0,0,1-.787-.9l.537-13.453-.094-3.138a.085.085,0,0,0-.165-.023l-.37,5.158a1.046,1.046,0,0,1-.089.206.79.79,0,0,1-1.011.415.8.8,0,0,1-.514-.593,1.065,1.065,0,0,1,.017-.543l1.078-8.083a1.775,1.775,0,0,1,1.705-1.282h3.674a1.775,1.775,0,0,1,1.705,1.282l1.078,8.083a1.062,1.062,0,0,1,.017.543Z" transform="translate(-12.098 -18.7)"/>
        <circle class="cls-5" cx="66.326" cy="114.151" r="2.177"/>
      </g>
      <g>
        <path class="cls-5" d="M61.111,38.846a.8.8,0,0,1-.513.593.79.79,0,0,1-1.011-.415,1.019,1.019,0,0,1-.089-.206l-.37-5.158a.085.085,0,0,0-.165.023l-.094,3.138.537,13.453a.794.794,0,0,1-.787.9h-1.1a.794.794,0,0,1-.788-.695l-.258-12.039-.258,12.039a.793.793,0,0,1-.787.695h-1.1a.793.793,0,0,1-.787-.9l.537-13.453-.094-3.138a.085.085,0,0,0-.165-.023l-.37,5.158a1.046,1.046,0,0,1-.089.206.79.79,0,0,1-1.011.415.8.8,0,0,1-.514-.593,1.065,1.065,0,0,1,.017-.543l1.078-8.083a1.775,1.775,0,0,1,1.705-1.282h3.674a1.775,1.775,0,0,1,1.705,1.282L61.094,38.3a1.062,1.062,0,0,1,.017.543Z" transform="translate(-12.098 -18.7)"/>
        <circle class="cls-5" cx="44.375" cy="7.435" r="2.177"/>
      </g>
      <g>
        <path class="cls-5" d="M61.111,74.419a.8.8,0,0,1-.513.593.79.79,0,0,1-1.011-.415,1.019,1.019,0,0,1-.089-.206l-.37-5.158a.085.085,0,0,0-.165.023l-.094,3.138.537,13.453a.794.794,0,0,1-.787.9h-1.1a.794.794,0,0,1-.788-.695L56.474,74.01,56.216,86.05a.793.793,0,0,1-.787.695h-1.1a.793.793,0,0,1-.787-.9l.537-13.453-.094-3.138a.085.085,0,0,0-.165-.023l-.37,5.158a1.046,1.046,0,0,1-.089.206.79.79,0,0,1-1.011.415.8.8,0,0,1-.514-.593,1.065,1.065,0,0,1,.017-.543l1.078-8.083a1.775,1.775,0,0,1,1.705-1.282h3.674a1.775,1.775,0,0,1,1.705,1.282l1.078,8.083a1.062,1.062,0,0,1,.017.543Z" transform="translate(-12.098 -18.7)"/>
        <circle class="cls-5" cx="44.375" cy="43.007" r="2.177"/>
      </g>
      <g>
        <path class="cls-5" d="M61.111,109.991a.8.8,0,0,1-.513.593.79.79,0,0,1-1.011-.415,1.019,1.019,0,0,1-.089-.206l-.37-5.158a.085.085,0,0,0-.165.023l-.094,3.138.537,13.453a.794.794,0,0,1-.787.9h-1.1a.794.794,0,0,1-.788-.695l-.258-12.039-.258,12.039a.793.793,0,0,1-.787.695h-1.1a.793.793,0,0,1-.787-.9l.537-13.453-.094-3.138a.085.085,0,0,0-.165-.023l-.37,5.158a1.046,1.046,0,0,1-.089.206.79.79,0,0,1-1.011.415.8.8,0,0,1-.514-.593,1.065,1.065,0,0,1,.017-.543l1.078-8.083a1.775,1.775,0,0,1,1.705-1.282h3.674a1.775,1.775,0,0,1,1.705,1.282l1.078,8.083a1.062,1.062,0,0,1,.017.543Z" transform="translate(-12.098 -18.7)"/>
        <circle class="cls-5" cx="44.375" cy="78.579" r="2.177"/>
      </g>
      <g>
        <path class="cls-5" d="M61.111,145.563a.8.8,0,0,1-.513.593.79.79,0,0,1-1.011-.415,1.019,1.019,0,0,1-.089-.206l-.37-5.158a.085.085,0,0,0-.165.023l-.094,3.138.537,13.453a.794.794,0,0,1-.787.9h-1.1a.794.794,0,0,1-.788-.695l-.258-12.039-.258,12.039a.793.793,0,0,1-.787.695h-1.1a.793.793,0,0,1-.787-.9l.537-13.453-.094-3.138a.085.085,0,0,0-.165-.023l-.37,5.158a1.046,1.046,0,0,1-.089.206.79.79,0,0,1-1.011.415.8.8,0,0,1-.514-.593,1.065,1.065,0,0,1,.017-.543l1.078-8.083a1.775,1.775,0,0,1,1.705-1.282h3.674a1.775,1.775,0,0,1,1.705,1.282l1.078,8.083a1.062,1.062,0,0,1,.017.543Z" transform="translate(-12.098 -18.7)"/>
        <circle class="cls-5" cx="44.375" cy="114.151" r="2.177"/>
      </g>
      <g>
        <path class="cls-5" d="M42.3,38.846a.8.8,0,0,1-.513.593.79.79,0,0,1-1.011-.415,1.019,1.019,0,0,1-.089-.206l-.37-5.158a.085.085,0,0,0-.165.023l-.094,3.138.537,13.453a.794.794,0,0,1-.787.9h-1.1a.794.794,0,0,1-.788-.695l-.258-12.039-.258,12.039a.793.793,0,0,1-.787.695h-1.1a.793.793,0,0,1-.787-.9l.537-13.453-.094-3.138a.085.085,0,0,0-.165-.023l-.37,5.158a1.046,1.046,0,0,1-.089.206.79.79,0,0,1-1.011.415.8.8,0,0,1-.514-.593,1.065,1.065,0,0,1,.017-.543l1.078-8.083a1.775,1.775,0,0,1,1.705-1.282H39.5a1.775,1.775,0,0,1,1.705,1.282L42.284,38.3a1.062,1.062,0,0,1,.017.543Z" transform="translate(-12.098 -18.7)"/>
        <circle class="cls-5" cx="25.565" cy="7.435" r="2.177"/>
      </g>
      <g>
        <path class="cls-5" d="M42.3,74.419a.8.8,0,0,1-.513.593.79.79,0,0,1-1.011-.415,1.019,1.019,0,0,1-.089-.206l-.37-5.158a.085.085,0,0,0-.165.023l-.094,3.138.537,13.453a.794.794,0,0,1-.787.9h-1.1a.794.794,0,0,1-.788-.695L37.663,74.01,37.405,86.05a.793.793,0,0,1-.787.695h-1.1a.793.793,0,0,1-.787-.9l.537-13.453-.094-3.138a.085.085,0,0,0-.165-.023l-.37,5.158a1.046,1.046,0,0,1-.089.206.79.79,0,0,1-1.011.415.8.8,0,0,1-.514-.593,1.065,1.065,0,0,1,.017-.543l1.078-8.083a1.775,1.775,0,0,1,1.705-1.282H39.5a1.775,1.775,0,0,1,1.705,1.282l1.078,8.083a1.062,1.062,0,0,1,.017.543Z" transform="translate(-12.098 -18.7)"/>
        <circle class="cls-5" cx="25.565" cy="43.007" r="2.177"/>
      </g>
      <g>
        <path class="cls-5" d="M42.3,109.991a.8.8,0,0,1-.513.593.79.79,0,0,1-1.011-.415,1.019,1.019,0,0,1-.089-.206l-.37-5.158a.085.085,0,0,0-.165.023l-.094,3.138.537,13.453a.794.794,0,0,1-.787.9h-1.1a.794.794,0,0,1-.788-.695l-.258-12.039-.258,12.039a.793.793,0,0,1-.787.695h-1.1a.793.793,0,0,1-.787-.9l.537-13.453-.094-3.138a.085.085,0,0,0-.165-.023l-.37,5.158a1.046,1.046,0,0,1-.089.206.79.79,0,0,1-1.011.415.8.8,0,0,1-.514-.593,1.065,1.065,0,0,1,.017-.543l1.078-8.083a1.775,1.775,0,0,1,1.705-1.282H39.5a1.775,1.775,0,0,1,1.705,1.282l1.078,8.083a1.062,1.062,0,0,1,.017.543Z" transform="translate(-12.098 -18.7)"/>
        <circle class="cls-5" cx="25.565" cy="78.579" r="2.177"/>
      </g>
      <g>
        <path class="cls-5" d="M42.3,145.563a.8.8,0,0,1-.513.593.79.79,0,0,1-1.011-.415,1.019,1.019,0,0,1-.089-.206l-.37-5.158a.085.085,0,0,0-.165.023l-.094,3.138.537,13.453a.794.794,0,0,1-.787.9h-1.1a.794.794,0,0,1-.788-.695l-.258-12.039-.258,12.039a.793.793,0,0,1-.787.695h-1.1a.793.793,0,0,1-.787-.9l.537-13.453-.094-3.138a.085.085,0,0,0-.165-.023l-.37,5.158a1.046,1.046,0,0,1-.089.206.79.79,0,0,1-1.011.415.8.8,0,0,1-.514-.593,1.065,1.065,0,0,1,.017-.543l1.078-8.083a1.775,1.775,0,0,1,1.705-1.282H39.5a1.775,1.775,0,0,1,1.705,1.282l1.078,8.083a1.062,1.062,0,0,1,.017.543Z" transform="translate(-12.098 -18.7)"/>
        <circle class="cls-5" cx="25.565" cy="114.151" r="2.177"/>
      </g>
      <g>
        <path class="cls-5" d="M105.486,184.879a.8.8,0,0,1-.513.593.79.79,0,0,1-1.011-.415,1.019,1.019,0,0,1-.089-.206l-.37-5.158a.085.085,0,0,0-.165.023l-.094,3.138.537,13.453a.794.794,0,0,1-.787.9h-1.1a.794.794,0,0,1-.788-.695l-.258-12.039-.258,12.039a.793.793,0,0,1-.787.695H98.7a.793.793,0,0,1-.787-.9l.537-13.453-.094-3.138a.085.085,0,0,0-.165-.023l-.37,5.158a1.046,1.046,0,0,1-.089.206.79.79,0,0,1-1.011.415.8.8,0,0,1-.514-.593,1.065,1.065,0,0,1,.017-.543l1.078-8.083a1.775,1.775,0,0,1,1.705-1.282h3.674a1.775,1.775,0,0,1,1.705,1.282l1.078,8.083a1.062,1.062,0,0,1,.017.543Z" transform="translate(-12.098 -18.7)"/>
        <circle class="cls-5" cx="88.751" cy="153.467" r="2.177"/>
      </g>
      <g>
        <path class="cls-5" d="M83.062,184.879a.8.8,0,0,1-.513.593.79.79,0,0,1-1.011-.415,1.019,1.019,0,0,1-.089-.206l-.37-5.158a.085.085,0,0,0-.165.023l-.094,3.138.537,13.453a.794.794,0,0,1-.787.9h-1.1a.794.794,0,0,1-.788-.695l-.258-12.039-.258,12.039a.793.793,0,0,1-.787.695h-1.1a.793.793,0,0,1-.787-.9l.537-13.453-.094-3.138a.085.085,0,0,0-.165-.023l-.37,5.158a1.046,1.046,0,0,1-.089.206.79.79,0,0,1-1.011.415.8.8,0,0,1-.514-.593,1.065,1.065,0,0,1,.017-.543l1.078-8.083a1.775,1.775,0,0,1,1.705-1.282h3.674a1.775,1.775,0,0,1,1.705,1.282l1.078,8.083a1.062,1.062,0,0,1,.017.543Z" transform="translate(-12.098 -18.7)"/>
        <circle class="cls-5" cx="66.326" cy="153.467" r="2.177"/>
      </g>
      <g>
        <path class="cls-5" d="M61.111,184.879a.8.8,0,0,1-.513.593.79.79,0,0,1-1.011-.415,1.019,1.019,0,0,1-.089-.206l-.37-5.158a.085.085,0,0,0-.165.023l-.094,3.138.537,13.453a.794.794,0,0,1-.787.9h-1.1a.794.794,0,0,1-.788-.695l-.258-12.039-.258,12.039a.793.793,0,0,1-.787.695h-1.1a.793.793,0,0,1-.787-.9l.537-13.453-.094-3.138a.085.085,0,0,0-.165-.023l-.37,5.158a1.046,1.046,0,0,1-.089.206.79.79,0,0,1-1.011.415.8.8,0,0,1-.514-.593,1.065,1.065,0,0,1,.017-.543l1.078-8.083a1.775,1.775,0,0,1,1.705-1.282h3.674a1.775,1.775,0,0,1,1.705,1.282l1.078,8.083a1.062,1.062,0,0,1,.017.543Z" transform="translate(-12.098 -18.7)"/>
        <circle class="cls-5" cx="44.375" cy="153.467" r="2.177"/>
      </g>
      <g>
        <path class="cls-5" d="M42.3,184.879a.8.8,0,0,1-.513.593.79.79,0,0,1-1.011-.415,1.019,1.019,0,0,1-.089-.206l-.37-5.158a.085.085,0,0,0-.165.023l-.094,3.138.537,13.453a.794.794,0,0,1-.787.9h-1.1a.794.794,0,0,1-.788-.695l-.258-12.039-.258,12.039a.793.793,0,0,1-.787.695h-1.1a.793.793,0,0,1-.787-.9l.537-13.453-.094-3.138a.085.085,0,0,0-.165-.023l-.37,5.158a1.046,1.046,0,0,1-.089.206.79.79,0,0,1-1.011.415.8.8,0,0,1-.514-.593,1.065,1.065,0,0,1,.017-.543l1.078-8.083a1.775,1.775,0,0,1,1.705-1.282H39.5a1.775,1.775,0,0,1,1.705,1.282l1.078,8.083a1.062,1.062,0,0,1,.017.543Z" transform="translate(-12.098 -18.7)"/>
        <circle class="cls-5" cx="25.565" cy="153.467" r="2.177"/>
      </g>
      <g>
        <path class="cls-5" d="M21.4,74.419a.8.8,0,0,1-.513.593.79.79,0,0,1-1.011-.415,1.019,1.019,0,0,1-.089-.206l-.37-5.158a.085.085,0,0,0-.165.023l-.094,3.138.537,13.453a.794.794,0,0,1-.787.9h-1.1a.794.794,0,0,1-.788-.695L16.763,74.01,16.5,86.05a.793.793,0,0,1-.787.695h-1.1a.793.793,0,0,1-.787-.9l.537-13.453-.094-3.138a.085.085,0,0,0-.165-.023l-.37,5.158a1.046,1.046,0,0,1-.089.206.79.79,0,0,1-1.011.415.8.8,0,0,1-.514-.593,1.065,1.065,0,0,1,.017-.543l1.078-8.083a1.775,1.775,0,0,1,1.705-1.282H18.6a1.775,1.775,0,0,1,1.705,1.282l1.078,8.083a1.062,1.062,0,0,1,.017.543Z" transform="translate(-12.098 -18.7)"/>
        <circle class="cls-5" cx="4.665" cy="43.007" r="2.177"/>
      </g>
      <g>
        <path class="cls-5" d="M21.4,109.991a.8.8,0,0,1-.513.593.79.79,0,0,1-1.011-.415,1.019,1.019,0,0,1-.089-.206l-.37-5.158a.085.085,0,0,0-.165.023l-.094,3.138.537,13.453a.794.794,0,0,1-.787.9h-1.1a.794.794,0,0,1-.788-.695l-.258-12.039L16.5,121.622a.793.793,0,0,1-.787.695h-1.1a.793.793,0,0,1-.787-.9l.537-13.453-.094-3.138a.085.085,0,0,0-.165-.023l-.37,5.158a1.046,1.046,0,0,1-.089.206.79.79,0,0,1-1.011.415.8.8,0,0,1-.514-.593,1.065,1.065,0,0,1,.017-.543l1.078-8.083a1.775,1.775,0,0,1,1.705-1.282H18.6a1.775,1.775,0,0,1,1.705,1.282l1.078,8.083a1.062,1.062,0,0,1,.017.543Z" transform="translate(-12.098 -18.7)"/>
        <circle class="cls-5" cx="4.665" cy="78.579" r="2.177"/>
      </g>
      <g>
        <path class="cls-5" d="M21.4,145.563a.8.8,0,0,1-.513.593.79.79,0,0,1-1.011-.415,1.019,1.019,0,0,1-.089-.206l-.37-5.158a.085.085,0,0,0-.165.023l-.094,3.138.537,13.453a.794.794,0,0,1-.787.9h-1.1a.794.794,0,0,1-.788-.695l-.258-12.039L16.5,157.194a.793.793,0,0,1-.787.695h-1.1a.793.793,0,0,1-.787-.9l.537-13.453-.094-3.138a.085.085,0,0,0-.165-.023l-.37,5.158a1.046,1.046,0,0,1-.089.206.79.79,0,0,1-1.011.415.8.8,0,0,1-.514-.593,1.065,1.065,0,0,1,.017-.543l1.078-8.083a1.775,1.775,0,0,1,1.705-1.282H18.6a1.775,1.775,0,0,1,1.705,1.282l1.078,8.083a1.062,1.062,0,0,1,.017.543Z" transform="translate(-12.098 -18.7)"/>
        <circle class="cls-5" cx="4.665" cy="114.151" r="2.177"/>
      </g>
      <g>
        <path class="cls-5" d="M190.365,74.419a.8.8,0,0,1-.513.593.79.79,0,0,1-1.011-.415,1.019,1.019,0,0,1-.089-.206l-.37-5.158a.085.085,0,0,0-.165.023l-.094,3.138.537,13.453a.794.794,0,0,1-.787.9h-1.1a.794.794,0,0,1-.788-.695l-.258-12.039L185.47,86.05a.793.793,0,0,1-.787.695h-1.1a.793.793,0,0,1-.787-.9l.537-13.453-.094-3.138a.085.085,0,0,0-.165-.023l-.37,5.158a1.046,1.046,0,0,1-.089.206.79.79,0,0,1-1.011.415.8.8,0,0,1-.514-.593,1.065,1.065,0,0,1,.017-.543l1.078-8.083a1.775,1.775,0,0,1,1.705-1.282h3.674a1.775,1.775,0,0,1,1.705,1.282l1.078,8.083a1.062,1.062,0,0,1,.017.543Z" transform="translate(-12.098 -18.7)"/>
        <circle class="cls-5" cx="173.629" cy="43.007" r="2.177"/>
      </g>
      <g>
        <path class="cls-5" d="M190.365,109.991a.8.8,0,0,1-.513.593.79.79,0,0,1-1.011-.415,1.019,1.019,0,0,1-.089-.206l-.37-5.158a.085.085,0,0,0-.165.023l-.094,3.138.537,13.453a.794.794,0,0,1-.787.9h-1.1a.794.794,0,0,1-.788-.695l-.258-12.039-.258,12.039a.793.793,0,0,1-.787.695h-1.1a.793.793,0,0,1-.787-.9l.537-13.453-.094-3.138a.085.085,0,0,0-.165-.023l-.37,5.158a1.046,1.046,0,0,1-.089.206.79.79,0,0,1-1.011.415.8.8,0,0,1-.514-.593,1.065,1.065,0,0,1,.017-.543l1.078-8.083a1.775,1.775,0,0,1,1.705-1.282h3.674a1.775,1.775,0,0,1,1.705,1.282l1.078,8.083a1.062,1.062,0,0,1,.017.543Z" transform="translate(-12.098 -18.7)"/>
        <circle class="cls-5" cx="173.629" cy="78.579" r="2.177"/>
      </g>
      <g>
        <path class="cls-5" d="M190.365,145.563a.8.8,0,0,1-.513.593.79.79,0,0,1-1.011-.415,1.019,1.019,0,0,1-.089-.206l-.37-5.158a.085.085,0,0,0-.165.023l-.094,3.138.537,13.453a.794.794,0,0,1-.787.9h-1.1a.794.794,0,0,1-.788-.695l-.258-12.039-.258,12.039a.793.793,0,0,1-.787.695h-1.1a.793.793,0,0,1-.787-.9l.537-13.453-.094-3.138a.085.085,0,0,0-.165-.023l-.37,5.158a1.046,1.046,0,0,1-.089.206.79.79,0,0,1-1.011.415.8.8,0,0,1-.514-.593,1.065,1.065,0,0,1,.017-.543l1.078-8.083a1.775,1.775,0,0,1,1.705-1.282h3.674a1.775,1.775,0,0,1,1.705,1.282l1.078,8.083a1.062,1.062,0,0,1,.017.543Z" transform="translate(-12.098 -18.7)"/>
        <circle class="cls-5" cx="173.629" cy="114.151" r="2.177"/>
      </g>
      <g>
        <path class="cls-5" d="M168.414,38.846a.8.8,0,0,1-.513.593.79.79,0,0,1-1.011-.415,1.019,1.019,0,0,1-.089-.206l-.37-5.158a.085.085,0,0,0-.165.023l-.094,3.138.537,13.453a.794.794,0,0,1-.787.9h-1.1a.794.794,0,0,1-.788-.695l-.258-12.039-.258,12.039a.793.793,0,0,1-.787.695h-1.1a.793.793,0,0,1-.787-.9l.537-13.453-.094-3.138a.085.085,0,0,0-.165-.023l-.37,5.158a1.046,1.046,0,0,1-.089.206.79.79,0,0,1-1.011.415.8.8,0,0,1-.514-.593,1.065,1.065,0,0,1,.017-.543l1.078-8.083a1.775,1.775,0,0,1,1.705-1.282h3.674a1.775,1.775,0,0,1,1.705,1.282L168.4,38.3a1.062,1.062,0,0,1,.017.543Z" transform="translate(-12.098 -18.7)"/>
        <circle class="cls-5" cx="151.679" cy="7.435" r="2.177"/>
      </g>
      <g>
        <path class="cls-5" d="M168.414,74.419a.8.8,0,0,1-.513.593.79.79,0,0,1-1.011-.415,1.019,1.019,0,0,1-.089-.206l-.37-5.158a.085.085,0,0,0-.165.023l-.094,3.138.537,13.453a.794.794,0,0,1-.787.9h-1.1a.794.794,0,0,1-.788-.695l-.258-12.039-.258,12.039a.793.793,0,0,1-.787.695h-1.1a.793.793,0,0,1-.787-.9l.537-13.453-.094-3.138a.085.085,0,0,0-.165-.023l-.37,5.158a1.046,1.046,0,0,1-.089.206.79.79,0,0,1-1.011.415.8.8,0,0,1-.514-.593,1.065,1.065,0,0,1,.017-.543l1.078-8.083a1.775,1.775,0,0,1,1.705-1.282h3.674a1.775,1.775,0,0,1,1.705,1.282l1.078,8.083a1.062,1.062,0,0,1,.017.543Z" transform="translate(-12.098 -18.7)"/>
        <circle class="cls-5" cx="151.679" cy="43.007" r="2.177"/>
      </g>
      <g>
        <path class="cls-5" d="M168.414,109.991a.8.8,0,0,1-.513.593.79.79,0,0,1-1.011-.415,1.019,1.019,0,0,1-.089-.206l-.37-5.158a.085.085,0,0,0-.165.023l-.094,3.138.537,13.453a.794.794,0,0,1-.787.9h-1.1a.794.794,0,0,1-.788-.695l-.258-12.039-.258,12.039a.793.793,0,0,1-.787.695h-1.1a.793.793,0,0,1-.787-.9l.537-13.453-.094-3.138a.085.085,0,0,0-.165-.023l-.37,5.158a1.046,1.046,0,0,1-.089.206.79.79,0,0,1-1.011.415.8.8,0,0,1-.514-.593,1.065,1.065,0,0,1,.017-.543l1.078-8.083a1.775,1.775,0,0,1,1.705-1.282h3.674a1.775,1.775,0,0,1,1.705,1.282l1.078,8.083a1.062,1.062,0,0,1,.017.543Z" transform="translate(-12.098 -18.7)"/>
        <circle class="cls-5" cx="151.679" cy="78.579" r="2.177"/>
      </g>
      <g>
        <path class="cls-5" d="M168.414,145.563a.8.8,0,0,1-.513.593.79.79,0,0,1-1.011-.415,1.019,1.019,0,0,1-.089-.206l-.37-5.158a.085.085,0,0,0-.165.023l-.094,3.138.537,13.453a.794.794,0,0,1-.787.9h-1.1a.794.794,0,0,1-.788-.695l-.258-12.039-.258,12.039a.793.793,0,0,1-.787.695h-1.1a.793.793,0,0,1-.787-.9l.537-13.453-.094-3.138a.085.085,0,0,0-.165-.023l-.37,5.158a1.046,1.046,0,0,1-.089.206.79.79,0,0,1-1.011.415.8.8,0,0,1-.514-.593,1.065,1.065,0,0,1,.017-.543l1.078-8.083a1.775,1.775,0,0,1,1.705-1.282h3.674a1.775,1.775,0,0,1,1.705,1.282l1.078,8.083a1.062,1.062,0,0,1,.017.543Z" transform="translate(-12.098 -18.7)"/>
        <circle class="cls-5" cx="151.679" cy="114.151" r="2.177"/>
      </g>
      <g>
        <path class="cls-5" d="M149.6,38.846a.8.8,0,0,1-.513.593.79.79,0,0,1-1.011-.415,1.019,1.019,0,0,1-.089-.206l-.37-5.158a.085.085,0,0,0-.165.023l-.094,3.138.537,13.453a.794.794,0,0,1-.787.9h-1.1a.794.794,0,0,1-.788-.695l-.258-12.039-.258,12.039a.793.793,0,0,1-.787.695h-1.1a.793.793,0,0,1-.787-.9l.537-13.453-.094-3.138a.085.085,0,0,0-.165-.023l-.37,5.158a1.046,1.046,0,0,1-.089.206.79.79,0,0,1-1.011.415.8.8,0,0,1-.514-.593,1.065,1.065,0,0,1,.017-.543l1.078-8.083a1.775,1.775,0,0,1,1.705-1.282H146.8a1.775,1.775,0,0,1,1.705,1.282l1.078,8.083a1.062,1.062,0,0,1,.017.543Z" transform="translate(-12.098 -18.7)"/>
        <circle class="cls-5" cx="132.868" cy="7.435" r="2.177"/>
      </g>
      <g>
        <path class="cls-5" d="M149.6,74.419a.8.8,0,0,1-.513.593.79.79,0,0,1-1.011-.415,1.019,1.019,0,0,1-.089-.206l-.37-5.158a.085.085,0,0,0-.165.023l-.094,3.138.537,13.453a.794.794,0,0,1-.787.9h-1.1a.794.794,0,0,1-.788-.695l-.258-12.039-.258,12.039a.793.793,0,0,1-.787.695h-1.1a.793.793,0,0,1-.787-.9l.537-13.453-.094-3.138a.085.085,0,0,0-.165-.023l-.37,5.158a1.046,1.046,0,0,1-.089.206.79.79,0,0,1-1.011.415.8.8,0,0,1-.514-.593,1.065,1.065,0,0,1,.017-.543l1.078-8.083a1.775,1.775,0,0,1,1.705-1.282H146.8a1.775,1.775,0,0,1,1.705,1.282l1.078,8.083a1.062,1.062,0,0,1,.017.543Z" transform="translate(-12.098 -18.7)"/>
        <circle class="cls-5" cx="132.868" cy="43.007" r="2.177"/>
      </g>
      <g>
        <path class="cls-5" d="M149.6,109.991a.8.8,0,0,1-.513.593.79.79,0,0,1-1.011-.415,1.019,1.019,0,0,1-.089-.206l-.37-5.158a.085.085,0,0,0-.165.023l-.094,3.138.537,13.453a.794.794,0,0,1-.787.9h-1.1a.794.794,0,0,1-.788-.695l-.258-12.039-.258,12.039a.793.793,0,0,1-.787.695h-1.1a.793.793,0,0,1-.787-.9l.537-13.453-.094-3.138a.085.085,0,0,0-.165-.023l-.37,5.158a1.046,1.046,0,0,1-.089.206.79.79,0,0,1-1.011.415.8.8,0,0,1-.514-.593,1.065,1.065,0,0,1,.017-.543l1.078-8.083a1.775,1.775,0,0,1,1.705-1.282H146.8a1.775,1.775,0,0,1,1.705,1.282l1.078,8.083a1.062,1.062,0,0,1,.017.543Z" transform="translate(-12.098 -18.7)"/>
        <circle class="cls-5" cx="132.868" cy="78.579" r="2.177"/>
      </g>
      <g>
        <path class="cls-5" d="M149.6,145.563a.8.8,0,0,1-.513.593.79.79,0,0,1-1.011-.415,1.019,1.019,0,0,1-.089-.206l-.37-5.158a.085.085,0,0,0-.165.023l-.094,3.138.537,13.453a.794.794,0,0,1-.787.9h-1.1a.794.794,0,0,1-.788-.695l-.258-12.039-.258,12.039a.793.793,0,0,1-.787.695h-1.1a.793.793,0,0,1-.787-.9l.537-13.453-.094-3.138a.085.085,0,0,0-.165-.023l-.37,5.158a1.046,1.046,0,0,1-.089.206.79.79,0,0,1-1.011.415.8.8,0,0,1-.514-.593,1.065,1.065,0,0,1,.017-.543l1.078-8.083a1.775,1.775,0,0,1,1.705-1.282H146.8a1.775,1.775,0,0,1,1.705,1.282l1.078,8.083a1.062,1.062,0,0,1,.017.543Z" transform="translate(-12.098 -18.7)"/>
        <circle class="cls-5" cx="132.868" cy="114.151" r="2.177"/>
      </g>
      <g>
        <path class="cls-5" d="M168.414,184.879a.8.8,0,0,1-.513.593.79.79,0,0,1-1.011-.415,1.019,1.019,0,0,1-.089-.206l-.37-5.158a.085.085,0,0,0-.165.023l-.094,3.138.537,13.453a.794.794,0,0,1-.787.9h-1.1a.794.794,0,0,1-.788-.695l-.258-12.039-.258,12.039a.793.793,0,0,1-.787.695h-1.1a.793.793,0,0,1-.787-.9l.537-13.453-.094-3.138a.085.085,0,0,0-.165-.023l-.37,5.158a1.046,1.046,0,0,1-.089.206.79.79,0,0,1-1.011.415.8.8,0,0,1-.514-.593,1.065,1.065,0,0,1,.017-.543l1.078-8.083a1.775,1.775,0,0,1,1.705-1.282h3.674a1.775,1.775,0,0,1,1.705,1.282l1.078,8.083a1.062,1.062,0,0,1,.017.543Z" transform="translate(-12.098 -18.7)"/>
        <circle class="cls-5" cx="151.679" cy="153.467" r="2.177"/>
      </g>
      <g>
        <path class="cls-5" d="M149.6,184.879a.8.8,0,0,1-.513.593.79.79,0,0,1-1.011-.415,1.019,1.019,0,0,1-.089-.206l-.37-5.158a.085.085,0,0,0-.165.023l-.094,3.138.537,13.453a.794.794,0,0,1-.787.9h-1.1a.794.794,0,0,1-.788-.695l-.258-12.039-.258,12.039a.793.793,0,0,1-.787.695h-1.1a.793.793,0,0,1-.787-.9l.537-13.453-.094-3.138a.085.085,0,0,0-.165-.023l-.37,5.158a1.046,1.046,0,0,1-.089.206.79.79,0,0,1-1.011.415.8.8,0,0,1-.514-.593,1.065,1.065,0,0,1,.017-.543l1.078-8.083a1.775,1.775,0,0,1,1.705-1.282H146.8a1.775,1.775,0,0,1,1.705,1.282l1.078,8.083a1.062,1.062,0,0,1,.017.543Z" transform="translate(-12.098 -18.7)"/>
        <circle class="cls-5" cx="132.868" cy="153.467" r="2.177"/>
      </g>
      <g>
        <path class="cls-5" d="M128.7,38.846a.8.8,0,0,1-.513.593.79.79,0,0,1-1.011-.415,1.019,1.019,0,0,1-.089-.206l-.37-5.158a.085.085,0,0,0-.165.023l-.094,3.138L127,50.274a.794.794,0,0,1-.787.9h-1.1a.794.794,0,0,1-.788-.695l-.258-12.039-.258,12.039a.793.793,0,0,1-.787.695h-1.1a.793.793,0,0,1-.787-.9l.537-13.453-.094-3.138a.085.085,0,0,0-.165-.023l-.37,5.158a1.046,1.046,0,0,1-.089.206.79.79,0,0,1-1.011.415.8.8,0,0,1-.514-.593,1.065,1.065,0,0,1,.017-.543l1.078-8.083a1.775,1.775,0,0,1,1.705-1.282H125.9a1.775,1.775,0,0,1,1.705,1.282l1.078,8.083a1.062,1.062,0,0,1,.017.543Z" transform="translate(-12.098 -18.7)"/>
        <circle class="cls-5" cx="111.968" cy="7.435" r="2.177"/>
      </g>
      <g>
        <path class="cls-5" d="M128.7,74.419a.8.8,0,0,1-.513.593.79.79,0,0,1-1.011-.415,1.019,1.019,0,0,1-.089-.206l-.37-5.158a.085.085,0,0,0-.165.023l-.094,3.138L127,85.846a.794.794,0,0,1-.787.9h-1.1a.794.794,0,0,1-.788-.695l-.258-12.039-.258,12.039a.793.793,0,0,1-.787.695h-1.1a.793.793,0,0,1-.787-.9l.537-13.453-.094-3.138a.085.085,0,0,0-.165-.023l-.37,5.158a1.046,1.046,0,0,1-.089.206.79.79,0,0,1-1.011.415.8.8,0,0,1-.514-.593,1.065,1.065,0,0,1,.017-.543l1.078-8.083a1.775,1.775,0,0,1,1.705-1.282H125.9a1.775,1.775,0,0,1,1.705,1.282l1.078,8.083a1.062,1.062,0,0,1,.017.543Z" transform="translate(-12.098 -18.7)"/>
        <circle class="cls-5" cx="111.968" cy="43.007" r="2.177"/>
      </g>
      <g>
        <path class="cls-6" d="M128.7,109.991a.8.8,0,0,1-.513.593.79.79,0,0,1-1.011-.415,1.019,1.019,0,0,1-.089-.206l-.37-5.158a.085.085,0,0,0-.165.023l-.094,3.138L127,121.418a.794.794,0,0,1-.787.9h-1.1a.794.794,0,0,1-.788-.695l-.258-12.039-.258,12.039a.793.793,0,0,1-.787.695h-1.1a.793.793,0,0,1-.787-.9l.537-13.453-.094-3.138a.085.085,0,0,0-.165-.023l-.37,5.158a1.046,1.046,0,0,1-.089.206.79.79,0,0,1-1.011.415.8.8,0,0,1-.514-.593,1.065,1.065,0,0,1,.017-.543l1.078-8.083a1.775,1.775,0,0,1,1.705-1.282H125.9a1.775,1.775,0,0,1,1.705,1.282l1.078,8.083a1.062,1.062,0,0,1,.017.543Z" transform="translate(-12.098 -18.7)"/>
        <circle class="cls-6" cx="111.968" cy="78.579" r="2.177"/>
      </g>
      <g>
        <path class="cls-5" d="M128.7,145.563a.8.8,0,0,1-.513.593.79.79,0,0,1-1.011-.415,1.019,1.019,0,0,1-.089-.206l-.37-5.158a.085.085,0,0,0-.165.023l-.094,3.138L127,156.99a.794.794,0,0,1-.787.9h-1.1a.794.794,0,0,1-.788-.695l-.258-12.039-.258,12.039a.793.793,0,0,1-.787.695h-1.1a.793.793,0,0,1-.787-.9l.537-13.453-.094-3.138a.085.085,0,0,0-.165-.023l-.37,5.158a1.046,1.046,0,0,1-.089.206.79.79,0,0,1-1.011.415.8.8,0,0,1-.514-.593,1.065,1.065,0,0,1,.017-.543l1.078-8.083a1.775,1.775,0,0,1,1.705-1.282H125.9a1.775,1.775,0,0,1,1.705,1.282l1.078,8.083a1.062,1.062,0,0,1,.017.543Z" transform="translate(-12.098 -18.7)"/>
        <circle class="cls-5" cx="111.968" cy="114.151" r="2.177"/>
      </g>
      <g>
        <path class="cls-5" d="M128.7,184.879a.8.8,0,0,1-.513.593.79.79,0,0,1-1.011-.415,1.019,1.019,0,0,1-.089-.206l-.37-5.158a.085.085,0,0,0-.165.023l-.094,3.138L127,196.306a.794.794,0,0,1-.787.9h-1.1a.794.794,0,0,1-.788-.695l-.258-12.039-.258,12.039a.793.793,0,0,1-.787.695h-1.1a.793.793,0,0,1-.787-.9l.537-13.453-.094-3.138a.085.085,0,0,0-.165-.023l-.37,5.158a1.046,1.046,0,0,1-.089.206.79.79,0,0,1-1.011.415.8.8,0,0,1-.514-.593,1.065,1.065,0,0,1,.017-.543l1.078-8.083a1.775,1.775,0,0,1,1.705-1.282H125.9a1.775,1.775,0,0,1,1.705,1.282l1.078,8.083a1.062,1.062,0,0,1,.017.543Z" transform="translate(-12.098 -18.7)"/>
        <circle class="cls-5" cx="111.968" cy="153.467" r="2.177"/>
      </g>
    </g>
  </g>
</svg>
