<svg width="175" height="163" viewBox="0 0 175 163" fill="none" xmlns="http://www.w3.org/2000/svg">
<path d="M75.348 7.35216V36.5541C75.348 40.5145 72.1375 43.7235 68.1771 43.7235C54.0469 43.7235 46.3606 58.2161 45.2953 86.82H68.1771C72.1375 86.82 75.348 90.0319 75.348 93.9909V155.649C75.348 159.608 72.1375 162.817 68.1771 162.817H7.16939C3.20745 162.817 0 159.605 0 155.649V93.9909C0 80.2788 1.38064 67.6956 4.10231 56.5868C6.89366 45.1963 11.1784 35.2371 16.8338 26.9849C22.6532 18.504 29.9323 11.849 38.4708 7.21279C47.067 2.5485 57.0633 0.18277 68.1796 0.18277C72.1375 0.18277 75.348 3.39172 75.348 7.35216ZM167.829 43.724C171.787 43.724 175 40.512 175 36.5546V7.35266C175 3.39222 171.788 0.183271 167.829 0.183271C156.717 0.183271 146.719 2.5495 138.126 7.21329C129.586 11.8495 122.303 18.5045 116.482 26.9854C110.829 35.2376 106.544 45.1973 103.752 56.5904C101.032 67.7026 99.6515 80.2858 99.6515 93.9914V155.65C99.6515 159.608 102.863 162.818 106.822 162.818H167.828C171.787 162.818 174.996 159.606 174.996 155.65V93.9909C174.996 90.0324 171.787 86.82 167.828 86.82H145.273C146.322 58.2166 153.896 43.724 167.829 43.724Z" fill="white"/>
</svg>
