<svg id="Layer_1" data-name="Layer 1" xmlns="http://www.w3.org/2000/svg" viewBox="0 0 191.973 191.973">
  <defs>
    <style>
      .cls-1, .cls-5 {
        fill: #007fa1;
      }

      .cls-2, .cls-4 {
        fill: #0096c1;
      }

      .cls-3 {
        fill: #fff;
      }

      .cls-3, .cls-4, .cls-5, .cls-6, .cls-7 {
        stroke: #fff;
        stroke-miterlimit: 10;
        stroke-width: 0.25px;
      }

      .cls-6 {
        fill: #d3d3d2;
      }

      .cls-7 {
        fill: none;
      }
    </style>
  </defs>
  <title>sys_bio</title>
  <circle class="cls-1" cx="95.987" cy="95.987" r="95.987"/>
  <path class="cls-2" d="M101.291,198.227a95.987,95.987,0,1,1,0-191.973" transform="translate(-5.145 -6.254)"/>
  <path class="cls-3" d="M188.38,140.891c-1.453-.155-7.477-1.141-7.477-1.141a51.966,51.966,0,0,1-7.729-2.175,49.653,49.653,0,0,1-13.6-7.553,74.743,74.743,0,0,1-10.909-10.845,142.69,142.69,0,0,1-8.759-11.9c-2.811-4.195-5.479-8.461-8.147-12.726-2.534-4.049-5.029-8.125-7.728-12.091A85.5,85.5,0,0,0,114.856,70.6a27.74,27.74,0,0,0-5.789-4.861c-2.173-1.258-4.73-2.42-7.424-2.242a14.345,14.345,0,0,0-7.3,2.477A36.6,36.6,0,0,0,88.5,71.043a88.3,88.3,0,0,0-8.942,11.714c-2.734,4.148-5.368,8.344-8,12.545-2.683,4.286-5.387,8.559-8.213,12.774a143.749,143.749,0,0,1-8.882,11.893A62.523,62.523,0,0,1,43.83,130.33a50.257,50.257,0,0,1-13.685,7.413,61.49,61.49,0,0,1-8.037,2.11s-6.29,1-7.756,1.151" transform="translate(-5.145 -6.254)"/>
  <path class="cls-4" d="M144.5,114.58c-1.764-2.363-3.473-4.759-5.1-7.193-2.811-4.195-5.479-8.461-8.147-12.726-2.534-4.049-5.029-8.125-7.728-12.091-.228-.335-.476-.664-.705-1V141H144.5Z" transform="translate(-5.145 -6.254)"/>
  <path class="cls-5" d="M57.763,115.988c1.764-2.24,3.473-4.511,5.1-6.819,2.811-3.977,5.479-8.021,8.147-12.064,2.534-3.838,5.029-7.7,7.728-11.462.228-.318.476-.63.705-.948v56.338H57.763Z" transform="translate(-5.145 -6.254)"/>
  <path class="cls-6" d="M122.816,81.522a79.441,79.441,0,0,0-8.471-10.863,27.736,27.736,0,0,0-5.789-4.861,14.583,14.583,0,0,0-6.472-2.2h-.951V141H114.67l8.145-.005Z" transform="translate(-5.145 -6.254)"/>
  <line class="cls-7" x1="9.207" y1="134.75" x2="183.235" y2="134.75"/>
</svg>
